<?xml version="1.0" standalone="no"?>
<!DOCTYPE svg PUBLIC "-//W3C//DTD SVG 20010904//EN"
 "http://www.w3.org/TR/2001/REC-SVG-20010904/DTD/svg10.dtd">
<svg version="1.0" xmlns="http://www.w3.org/2000/svg"
 width="1024.000000pt" height="1024.000000pt" viewBox="0 0 1024.000000 1024.000000"
 preserveAspectRatio="xMidYMid meet">
<metadata>
Created by potrace 1.11, written by Peter Selinger 2001-2013
</metadata>
<g transform="translate(0.000000,1024.000000) scale(0.100000,-0.100000)"
fill="#000000" stroke="none">
<path d="M4975 10153 c-44 -7 -91 -15 -105 -17 -14 -2 -54 -9 -90 -16 -36 -7
-74 -14 -85 -15 -19 -3 -385 -70 -435 -80 -14 -3 -63 -12 -110 -21 -47 -9 -92
-18 -101 -19 -9 -2 -32 -6 -50 -9 -19 -3 -45 -8 -59 -11 -22 -4 -61 -11 -113
-21 -10 -2 -26 -5 -35 -8 -9 -3 -33 -7 -52 -10 -35 -6 -63 -11 -110 -21 -14
-3 -38 -7 -55 -10 -16 -2 -64 -10 -105 -19 -66 -13 -251 -49 -320 -61 -14 -3
-47 -9 -75 -15 -27 -5 -61 -11 -75 -14 -14 -2 -86 -16 -160 -30 -74 -14 -146
-27 -160 -30 -14 -3 -50 -10 -80 -16 -30 -6 -66 -13 -80 -15 -14 -3 -36 -7
-50 -10 -14 -3 -52 -10 -85 -16 -33 -6 -91 -17 -130 -24 -38 -8 -81 -16 -95
-19 -14 -3 -59 -12 -100 -20 -41 -8 -88 -17 -105 -20 -16 -2 -39 -7 -50 -9
-11 -3 -69 -14 -130 -25 -60 -12 -122 -24 -137 -27 -16 -3 -40 -7 -55 -10 -16
-3 -75 -15 -133 -26 -58 -12 -116 -23 -130 -25 -14 -3 -50 -9 -80 -15 -53 -11
-113 -22 -175 -34 -16 -3 -111 -22 -210 -41 -99 -20 -191 -38 -205 -41 -14 -2
-56 -11 -95 -19 -38 -7 -72 -14 -75 -14 -3 0 -5 -782 -4 -1737 0 -956 -1
-1743 -3 -1748 -2 -7 -86 -10 -238 -10 l-235 0 0 -1012 0 -1013 130 0 130 0 0
-322 c0 -178 3 -352 6 -388 l6 -65 381 0 380 0 36 -55 c20 -30 40 -59 44 -65
4 -5 35 -48 69 -95 59 -82 109 -145 193 -239 45 -52 334 -340 386 -386 190
-169 461 -391 639 -525 100 -75 96 -73 135 -103 46 -37 382 -278 455 -327 36
-24 67 -46 70 -49 3 -3 12 -10 21 -16 9 -5 128 -85 265 -176 603 -402 1186
-751 1379 -826 263 -101 490 -102 737 -4 73 29 238 108 308 148 19 11 62 35
95 53 299 165 1041 604 1245 735 36 23 93 59 128 81 176 110 539 357 632 431
426 337 846 761 1117 1128 29 39 56 75 60 80 5 6 37 53 72 105 35 52 66 97 68
100 3 3 176 5 386 5 l381 0 4 45 c2 25 4 199 5 387 l2 343 138 0 137 0 -2
1012 -3 1013 -242 0 c-158 0 -243 3 -244 10 -1 10 -3 54 -14 415 -4 118 -9
269 -12 335 -2 66 -6 711 -8 1433 -2 723 -6 1316 -8 1318 -5 6 -23 9 -122 24
-44 6 -91 13 -105 16 -14 2 -56 9 -95 14 -89 12 -414 63 -475 74 -14 3 -77 14
-140 25 -63 11 -126 22 -140 25 -14 3 -43 7 -65 11 -22 3 -56 10 -75 15 -19 5
-48 11 -65 13 -30 5 -131 23 -170 31 -11 2 -67 14 -125 26 -58 12 -116 24
-130 26 -14 3 -99 20 -190 39 -91 19 -201 41 -245 50 -44 9 -96 20 -115 25
-19 5 -48 11 -65 14 -16 3 -41 7 -55 11 -14 3 -38 8 -55 10 -16 3 -37 8 -45
10 -19 6 -640 133 -880 180 -96 19 -197 39 -225 44 -48 10 -291 54 -365 66
-19 3 -42 8 -50 10 -8 2 -35 7 -60 10 -25 3 -70 10 -100 15 -135 23 -239 39
-295 45 -22 3 -58 8 -80 11 -69 11 -117 11 -200 -3z"/>
</g>
</svg>
